<svg class="fig" viewBox="0 0 640 360" xmlns="http://www.w3.org/2000/svg" role="img" preserveAspectRatio="xMidYMid meet"><rect x="0" y="0" width="320" height="360" fill="#eef0f1"/><rect x="320" y="0" width="320" height="360" fill="#e9f0f6"/><line x1="320" y1="0" x2="320" y2="360" stroke="#2b3036" stroke-width="2"/><text x="40" y="52" font-family="'IBM Plex Mono',ui-monospace,monospace" font-size="13" letter-spacing=".1em" fill="#16191c" font-weight="700" text-anchor="start">INLAND / DRY</text><text x="40" y="96" font-family="'Source Serif 4',Georgia,serif" font-size="46" font-weight="600" fill="#2b3036">304</text><text x="40" y="124" font-family="'IBM Plex Mono',ui-monospace,monospace" font-size="11" letter-spacing=".08em" fill="#5c6166" font-weight="500" text-anchor="start">A2 / 18-8</text><circle cx="250" cy="70" r="20" fill="none" stroke="#9aa0a6" stroke-width="2"/><path d="M60 250 l70 -46 l70 46 v70 h-140 z" fill="#ffffff" stroke="#2b3036" stroke-width="2"/><rect x="112" y="286" width="36" height="34" fill="#e8eaec" stroke="#2b3036" stroke-width="1.6"/><circle cx="46" cy="172" r="3" fill="#1c5a8f"/><text x="58" y="176" font-family="'IBM Plex Mono',ui-monospace,monospace" font-size="11.5" letter-spacing=".02em" fill="#5c6166" font-weight="500" text-anchor="start">Interior doors</text><circle cx="46" cy="196" r="3" fill="#1c5a8f"/><text x="58" y="200" font-family="'IBM Plex Mono',ui-monospace,monospace" font-size="11.5" letter-spacing=".02em" fill="#5c6166" font-weight="500" text-anchor="start">Cabinets &amp; furniture</text><circle cx="46" cy="220" r="3" fill="#1c5a8f"/><text x="58" y="224" font-family="'IBM Plex Mono',ui-monospace,monospace" font-size="11.5" letter-spacing=".02em" fill="#5c6166" font-weight="500" text-anchor="start">Sheds, fences inland</text><text x="360" y="52" font-family="'IBM Plex Mono',ui-monospace,monospace" font-size="13" letter-spacing=".1em" fill="#1c5a8f" font-weight="700" text-anchor="start">COASTAL / SALT / POOL</text><text x="360" y="96" font-family="'Source Serif 4',Georgia,serif" font-size="46" font-weight="600" fill="#1c5a8f">316</text><text x="360" y="124" font-family="'IBM Plex Mono',ui-monospace,monospace" font-size="11" letter-spacing=".08em" fill="#5c6166" font-weight="500" text-anchor="start">A4 / MARINE &#183; + MO</text><path d="M360 250 q20 -12 40 0 t40 0 t40 0 t40 0 t40 0" fill="none" stroke="#6fa8d6" stroke-width="2"/><path d="M360 268 q20 -12 40 0 t40 0 t40 0 t40 0 t40 0" fill="none" stroke="#6fa8d6" stroke-width="2"/><path d="M360 286 q20 -12 40 0 t40 0 t40 0 t40 0 t40 0" fill="none" stroke="#6fa8d6" stroke-width="2"/><circle cx="366" cy="172" r="3" fill="#1c5a8f"/><text x="378" y="176" font-family="'IBM Plex Mono',ui-monospace,monospace" font-size="11.5" letter-spacing=".02em" fill="#5c6166" font-weight="500" text-anchor="start">Within ~5 mi of coast</text><circle cx="366" cy="196" r="3" fill="#1c5a8f"/><text x="378" y="200" font-family="'IBM Plex Mono',ui-monospace,monospace" font-size="11.5" letter-spacing=".02em" fill="#5c6166" font-weight="500" text-anchor="start">Pools &amp; spas (chlorine)</text><circle cx="366" cy="220" r="3" fill="#1c5a8f"/><text x="378" y="224" font-family="'IBM Plex Mono',ui-monospace,monospace" font-size="11.5" letter-spacing=".02em" fill="#5c6166" font-weight="500" text-anchor="start">Docks, boats, marine</text><text x="320" y="344" font-family="'IBM Plex Mono',ui-monospace,monospace" font-size="10.5" letter-spacing=".04em" fill="#9aa0a6" font-weight="500" text-anchor="middle">MATCH THE GRADE TO THE ENVIRONMENT, NOT THE PRICE TAG</text></svg>