<svg class="fig" viewBox="0 0 700 360" xmlns="http://www.w3.org/2000/svg" role="img" preserveAspectRatio="xMidYMid meet"><rect x="70" y="40" width="150" height="300" fill="#e8eaec" stroke="#2b3036" stroke-width="2"/><text x="145" y="30" font-family="'IBM Plex Mono',ui-monospace,monospace" font-size="11" letter-spacing=".08em" fill="#5c6166" font-weight="600" text-anchor="middle">DOOR EDGE</text><line x1="92" y1="46" x2="92" y2="334" stroke="#d3d7dc" stroke-width="1"/><line x1="112" y1="46" x2="112" y2="334" stroke="#d3d7dc" stroke-width="1"/><line x1="132" y1="46" x2="132" y2="334" stroke="#d3d7dc" stroke-width="1"/><line x1="152" y1="46" x2="152" y2="334" stroke="#d3d7dc" stroke-width="1"/><line x1="172" y1="46" x2="172" y2="334" stroke="#d3d7dc" stroke-width="1"/><line x1="192" y1="46" x2="192" y2="334" stroke="#d3d7dc" stroke-width="1"/><rect x="204" y="120" width="30" height="140" fill="#ffffff" stroke="#1c5a8f" stroke-width="2"/><rect x="214" y="122" width="18" height="136" fill="#eef0f1" stroke="#2b3036" stroke-width="1.6"/><circle cx="240" cy="132" r="10" fill="none" stroke="#2b3036" stroke-width="1.8"/><circle cx="240" cy="248" r="10" fill="none" stroke="#2b3036" stroke-width="1.8"/><rect x="234" y="150" width="16" height="80" rx="8" fill="#e8eaec" stroke="#2b3036" stroke-width="1.8"/><line x1="204" y1="300" x2="234" y2="300" stroke="#1c5a8f" stroke-width="1.4"/><line x1="204" y1="296" x2="204" y2="304" stroke="#1c5a8f" stroke-width="1.4"/><line x1="234" y1="296" x2="234" y2="304" stroke="#1c5a8f" stroke-width="1.4"/><text x="219" y="320" font-family="'IBM Plex Mono',ui-monospace,monospace" font-size="10" letter-spacing=".03em" fill="#1c5a8f" font-weight="600" text-anchor="middle">LEAF-FLUSH DEPTH</text><line x1="234" y1="190" x2="360" y2="150" stroke="#5c6166" stroke-width="1" stroke-dasharray="3 3"/><text x="368" y="148" font-family="'IBM Plex Mono',ui-monospace,monospace" font-size="11" letter-spacing=".08em" fill="#16191c" font-weight="600" text-anchor="start">KNUCKLE CLEARS THE EDGE</text><line x1="219" y1="180" x2="360" y2="220" stroke="#5c6166" stroke-width="1" stroke-dasharray="3 3"/><text x="368" y="224" font-family="'IBM Plex Mono',ui-monospace,monospace" font-size="11" letter-spacing=".08em" fill="#16191c" font-weight="600" text-anchor="start">LEAF SITS FLUSH WITH WOOD</text><text x="368" y="268" font-family="'IBM Plex Mono',ui-monospace,monospace" font-size="10.5" letter-spacing=".02em" fill="#5c6166" font-weight="500" text-anchor="start">Score the outline, chisel to</text><text x="368" y="286" font-family="'IBM Plex Mono',ui-monospace,monospace" font-size="10.5" letter-spacing=".02em" fill="#5c6166" font-weight="500" text-anchor="start">the leaf thickness, test-fit.</text></svg>