<svg class="fig" viewBox="0 0 640 380" xmlns="http://www.w3.org/2000/svg" role="img" preserveAspectRatio="xMidYMid meet"><rect x="150" y="96" width="150" height="208" fill="#e8eaec" stroke="#2b3036" stroke-width="2"/><rect x="340" y="96" width="150" height="208" fill="#e8eaec" stroke="#2b3036" stroke-width="2"/><rect x="300" y="96.0" width="40" height="41.6" fill="#eef0f1" stroke="#2b3036" stroke-width="1.6"/><ellipse cx="320" cy="116.8" rx="7" ry="16.8" fill="none" stroke="#5c6166" stroke-width="1.2"/><rect x="300" y="137.6" width="40" height="41.6" fill="#dfe3e6" stroke="#2b3036" stroke-width="1.6"/><ellipse cx="320" cy="158.4" rx="7" ry="16.8" fill="none" stroke="#5c6166" stroke-width="1.2"/><rect x="300" y="179.2" width="40" height="41.6" fill="#eef0f1" stroke="#2b3036" stroke-width="1.6"/><ellipse cx="320" cy="200.0" rx="7" ry="16.8" fill="none" stroke="#5c6166" stroke-width="1.2"/><rect x="300" y="220.8" width="40" height="41.6" fill="#dfe3e6" stroke="#2b3036" stroke-width="1.6"/><ellipse cx="320" cy="241.6" rx="7" ry="16.8" fill="none" stroke="#5c6166" stroke-width="1.2"/><rect x="300" y="262.4" width="40" height="41.6" fill="#eef0f1" stroke="#2b3036" stroke-width="1.6"/><ellipse cx="320" cy="283.2" rx="7" ry="16.8" fill="none" stroke="#5c6166" stroke-width="1.2"/><line x1="320" y1="82" x2="320" y2="318" stroke="#1c5a8f" stroke-width="3.4"/><circle cx="320" cy="82" r="7" fill="#1c5a8f"/><circle cx="192" cy="150" r="12" fill="#ffffff" stroke="#2b3036" stroke-width="1.6"/><circle cx="192" cy="150" r="5" fill="#9aa0a6"/><circle cx="192" cy="250" r="12" fill="#ffffff" stroke="#2b3036" stroke-width="1.6"/><circle cx="192" cy="250" r="5" fill="#9aa0a6"/><circle cx="258" cy="150" r="12" fill="#ffffff" stroke="#2b3036" stroke-width="1.6"/><circle cx="258" cy="150" r="5" fill="#9aa0a6"/><circle cx="258" cy="250" r="12" fill="#ffffff" stroke="#2b3036" stroke-width="1.6"/><circle cx="258" cy="250" r="5" fill="#9aa0a6"/><circle cx="382" cy="150" r="12" fill="#ffffff" stroke="#2b3036" stroke-width="1.6"/><circle cx="382" cy="150" r="5" fill="#9aa0a6"/><circle cx="382" cy="250" r="12" fill="#ffffff" stroke="#2b3036" stroke-width="1.6"/><circle cx="382" cy="250" r="5" fill="#9aa0a6"/><circle cx="448" cy="150" r="12" fill="#ffffff" stroke="#2b3036" stroke-width="1.6"/><circle cx="448" cy="150" r="5" fill="#9aa0a6"/><circle cx="448" cy="250" r="12" fill="#ffffff" stroke="#2b3036" stroke-width="1.6"/><circle cx="448" cy="250" r="5" fill="#9aa0a6"/><line x1="225" y1="120" x2="225" y2="52" stroke="#5c6166" stroke-width="1" stroke-dasharray="3 3"/><text x="225" y="44" font-family="'IBM Plex Mono',ui-monospace,monospace" font-size="12" letter-spacing=".08em" fill="#16191c" font-weight="600" text-anchor="middle">LEAF</text><line x1="320" y1="200" x2="548" y2="200" stroke="#5c6166" stroke-width="1" stroke-dasharray="3 3"/><text x="556" y="196" font-family="'IBM Plex Mono',ui-monospace,monospace" font-size="12" letter-spacing=".08em" fill="#16191c" font-weight="600" text-anchor="start">PIN</text><line x1="340" y1="118" x2="548" y2="118" stroke="#5c6166" stroke-width="1" stroke-dasharray="3 3"/><text x="556" y="114" font-family="'IBM Plex Mono',ui-monospace,monospace" font-size="12" letter-spacing=".08em" fill="#16191c" font-weight="600" text-anchor="start">KNUCKLE</text><line x1="258" y1="250" x2="258" y2="336" stroke="#5c6166" stroke-width="1" stroke-dasharray="3 3"/><text x="258" y="352" font-family="'IBM Plex Mono',ui-monospace,monospace" font-size="11" letter-spacing=".08em" fill="#5c6166" font-weight="600" text-anchor="middle">COUNTERSUNK HOLES</text></svg>