<svg class="fig" viewBox="0 0 640 366" xmlns="http://www.w3.org/2000/svg" role="img" preserveAspectRatio="xMidYMid meet"><rect x="40" y="160" width="96" height="150" fill="#e8eaec" stroke="#2b3036" stroke-width="2"/><circle cx="120" cy="284" r="3" fill="#5c6166"/><rect x="37" y="175.0" width="10" height="14" fill="#1c5a8f"/><rect x="37" y="281.0" width="10" height="14" fill="#1c5a8f"/><text x="88" y="332" font-family="'IBM Plex Mono',ui-monospace,monospace" font-size="11" letter-spacing=".02em" fill="#16191c" font-weight="600" text-anchor="middle">UP TO 60"</text><text x="88" y="350" font-family="'IBM Plex Mono',ui-monospace,monospace" font-size="11" letter-spacing=".04em" fill="#1c5a8f" font-weight="700" text-anchor="middle">2 HINGES</text><rect x="190" y="100" width="96" height="210" fill="#e8eaec" stroke="#2b3036" stroke-width="2"/><circle cx="270" cy="284" r="3" fill="#5c6166"/><rect x="187" y="115.0" width="10" height="14" fill="#1c5a8f"/><rect x="187" y="198.0" width="10" height="14" fill="#1c5a8f"/><rect x="187" y="281.0" width="10" height="14" fill="#1c5a8f"/><text x="238" y="332" font-family="'IBM Plex Mono',ui-monospace,monospace" font-size="11" letter-spacing=".02em" fill="#16191c" font-weight="600" text-anchor="middle">60&#8211;90"</text><text x="238" y="350" font-family="'IBM Plex Mono',ui-monospace,monospace" font-size="11" letter-spacing=".04em" fill="#1c5a8f" font-weight="700" text-anchor="middle">3 HINGES</text><rect x="340" y="40" width="96" height="270" fill="#e8eaec" stroke="#2b3036" stroke-width="2"/><circle cx="420" cy="284" r="3" fill="#5c6166"/><rect x="337" y="55.0" width="10" height="14" fill="#1c5a8f"/><rect x="337" y="130.33333333333331" width="10" height="14" fill="#1c5a8f"/><rect x="337" y="205.66666666666666" width="10" height="14" fill="#1c5a8f"/><rect x="337" y="281.0" width="10" height="14" fill="#1c5a8f"/><text x="388" y="332" font-family="'IBM Plex Mono',ui-monospace,monospace" font-size="11" letter-spacing=".02em" fill="#16191c" font-weight="600" text-anchor="middle">90&#8211;120"</text><text x="388" y="350" font-family="'IBM Plex Mono',ui-monospace,monospace" font-size="11" letter-spacing=".04em" fill="#1c5a8f" font-weight="700" text-anchor="middle">4 HINGES</text><rect x="490" y="10" width="96" height="300" fill="#e8eaec" stroke="#2b3036" stroke-width="2"/><circle cx="570" cy="284" r="3" fill="#5c6166"/><rect x="487" y="25.0" width="10" height="14" fill="#1c5a8f"/><rect x="487" y="89.0" width="10" height="14" fill="#1c5a8f"/><rect x="487" y="153.0" width="10" height="14" fill="#1c5a8f"/><rect x="487" y="217.0" width="10" height="14" fill="#1c5a8f"/><rect x="487" y="281.0" width="10" height="14" fill="#1c5a8f"/><text x="538" y="332" font-family="'IBM Plex Mono',ui-monospace,monospace" font-size="11" letter-spacing=".02em" fill="#16191c" font-weight="600" text-anchor="middle">EACH +30"</text><text x="538" y="350" font-family="'IBM Plex Mono',ui-monospace,monospace" font-size="11" letter-spacing=".04em" fill="#1c5a8f" font-weight="700" text-anchor="middle">+1 HINGE</text><text x="40" y="26" font-family="'IBM Plex Mono',ui-monospace,monospace" font-size="13" letter-spacing=".08em" fill="#16191c" font-weight="700" text-anchor="start">HINGES BY DOOR HEIGHT</text><text x="40" y="44" font-family="'IBM Plex Mono',ui-monospace,monospace" font-size="10.5" letter-spacing=".02em" fill="#5c6166" font-weight="500" text-anchor="start">Add one hinge for heavy solid-core or oversized doors</text></svg>