<svg class="fig" viewBox="0 0 700 330" xmlns="http://www.w3.org/2000/svg" role="img" preserveAspectRatio="xMidYMid meet"><text x="40" y="138" font-family="'IBM Plex Mono',ui-monospace,monospace" font-size="22" letter-spacing=".02em" fill="#2b3036" font-weight="700" text-anchor="start">304</text><text x="40" y="158" font-family="'IBM Plex Mono',ui-monospace,monospace" font-size="10" letter-spacing=".08em" fill="#5c6166" font-weight="500" text-anchor="start">A2</text><text x="40" y="252" font-family="'IBM Plex Mono',ui-monospace,monospace" font-size="22" letter-spacing=".02em" fill="#1c5a8f" font-weight="700" text-anchor="start">316</text><text x="40" y="272" font-family="'IBM Plex Mono',ui-monospace,monospace" font-size="10" letter-spacing=".08em" fill="#5c6166" font-weight="500" text-anchor="start">A4</text><text x="210.0" y="70" font-family="'IBM Plex Mono',ui-monospace,monospace" font-size="10.5" letter-spacing=".04em" fill="#5c6166" font-weight="600" text-anchor="middle">NEW</text><rect x="150" y="96" width="120" height="74" fill="#e8eaec" stroke="#2b3036" stroke-width="1.6"/><rect x="150" y="210" width="120" height="74" fill="#eef2f5" stroke="#2b3036" stroke-width="1.6"/><text x="386.0" y="70" font-family="'IBM Plex Mono',ui-monospace,monospace" font-size="10.5" letter-spacing=".04em" fill="#5c6166" font-weight="600" text-anchor="middle">~6 MO IN SALT AIR</text><rect x="326" y="96" width="120" height="74" fill="#e8eaec" stroke="#2b3036" stroke-width="1.6"/><circle cx="346" cy="118" r="4.5" fill="#b98a4e" opacity="0.55"/><circle cx="396" cy="136" r="4.5" fill="#b98a4e" opacity="0.55"/><circle cx="421" cy="114" r="4.5" fill="#b98a4e" opacity="0.55"/><circle cx="371" cy="151" r="4.5" fill="#b98a4e" opacity="0.55"/><circle cx="356" cy="156" r="4.5" fill="#b98a4e" opacity="0.55"/><rect x="326" y="210" width="120" height="74" fill="#eef2f5" stroke="#2b3036" stroke-width="1.6"/><path d="M344 262 q40 -10 84 0" fill="none" stroke="#6fa8d6" stroke-width="1.4" opacity="0.5"/><text x="562.0" y="70" font-family="'IBM Plex Mono',ui-monospace,monospace" font-size="10.5" letter-spacing=".04em" fill="#5c6166" font-weight="600" text-anchor="middle">~2 YR IN SALT AIR</text><rect x="502" y="96" width="120" height="74" fill="#e8eaec" stroke="#2b3036" stroke-width="1.6"/><circle cx="520" cy="116" r="6" fill="#8a5a2a" opacity="0.6"/><circle cx="520" cy="116" r="2" fill="#16191c" opacity="0.6"/><circle cx="542" cy="126" r="6" fill="#8a5a2a" opacity="0.6"/><circle cx="542" cy="126" r="2" fill="#16191c" opacity="0.6"/><circle cx="568" cy="120" r="6" fill="#8a5a2a" opacity="0.6"/><circle cx="568" cy="120" r="2" fill="#16191c" opacity="0.6"/><circle cx="592" cy="134" r="6" fill="#8a5a2a" opacity="0.6"/><circle cx="592" cy="134" r="2" fill="#16191c" opacity="0.6"/><circle cx="532" cy="148" r="6" fill="#8a5a2a" opacity="0.6"/><circle cx="532" cy="148" r="2" fill="#16191c" opacity="0.6"/><circle cx="560" cy="154" r="6" fill="#8a5a2a" opacity="0.6"/><circle cx="560" cy="154" r="2" fill="#16191c" opacity="0.6"/><circle cx="586" cy="152" r="6" fill="#8a5a2a" opacity="0.6"/><circle cx="586" cy="152" r="2" fill="#16191c" opacity="0.6"/><circle cx="602" cy="116" r="6" fill="#8a5a2a" opacity="0.6"/><circle cx="602" cy="116" r="2" fill="#16191c" opacity="0.6"/><rect x="502" y="210" width="120" height="74" fill="#eef2f5" stroke="#2b3036" stroke-width="1.6"/><path d="M520 262 q40 -10 84 0" fill="none" stroke="#6fa8d6" stroke-width="1.4" opacity="0.5"/><text x="150" y="56" font-family="'IBM Plex Mono',ui-monospace,monospace" font-size="12" letter-spacing=".05em" fill="#16191c" font-weight="700" text-anchor="start">SAME CHLORIDE EXPOSURE, TWO OUTCOMES</text><text x="150" y="314" font-family="'IBM Plex Mono',ui-monospace,monospace" font-size="10.5" letter-spacing=".02em" fill="#5c6166" font-weight="500" text-anchor="start">304 tea-stains then pits; 316's molybdenum holds a passive film</text></svg>