<svg class="fig" viewBox="0 0 639 360" xmlns="http://www.w3.org/2000/svg" role="img" preserveAspectRatio="xMidYMid meet"><rect x="0" y="0" width="213" height="180" fill="#ffffff" stroke="#d3d7dc" stroke-width="1.5"/><rect x="60.5" y="32" width="42" height="80" fill="#e8eaec" stroke="#2b3036" stroke-width="1.8"/><rect x="110.5" y="32" width="42" height="80" fill="#e8eaec" stroke="#2b3036" stroke-width="1.8"/><line x1="106.5" y1="26" x2="106.5" y2="118" stroke="#1c5a8f" stroke-width="3"/><circle cx="81.5" cy="50" r="4.5" fill="none" stroke="#2b3036" stroke-width="1.4"/><circle cx="131.5" cy="50" r="4.5" fill="none" stroke="#2b3036" stroke-width="1.4"/><circle cx="81.5" cy="94" r="4.5" fill="none" stroke="#2b3036" stroke-width="1.4"/><circle cx="131.5" cy="94" r="4.5" fill="none" stroke="#2b3036" stroke-width="1.4"/><text x="106.5" y="158" font-family="'IBM Plex Mono',ui-monospace,monospace" font-size="11" letter-spacing=".03em" fill="#16191c" font-weight="600" text-anchor="middle">BUTT / BALL-BEARING</text><rect x="213" y="0" width="213" height="180" fill="#ffffff" stroke="#d3d7dc" stroke-width="1.5"/><rect x="267.5" y="30" width="46" height="84" fill="#e8eaec" stroke="#2b3036" stroke-width="1.8"/><rect x="325.5" y="30" width="46" height="84" fill="#e8eaec" stroke="#2b3036" stroke-width="1.8"/><line x1="319.5" y1="26" x2="319.5" y2="118" stroke="#1c5a8f" stroke-width="3"/><circle cx="289.5" cy="38" r="3.4" fill="none" stroke="#2b3036" stroke-width="1.2"/><circle cx="349.5" cy="38" r="3.4" fill="none" stroke="#2b3036" stroke-width="1.2"/><circle cx="289.5" cy="54" r="3.4" fill="none" stroke="#2b3036" stroke-width="1.2"/><circle cx="349.5" cy="54" r="3.4" fill="none" stroke="#2b3036" stroke-width="1.2"/><circle cx="289.5" cy="70" r="3.4" fill="none" stroke="#2b3036" stroke-width="1.2"/><circle cx="349.5" cy="70" r="3.4" fill="none" stroke="#2b3036" stroke-width="1.2"/><circle cx="289.5" cy="86" r="3.4" fill="none" stroke="#2b3036" stroke-width="1.2"/><circle cx="349.5" cy="86" r="3.4" fill="none" stroke="#2b3036" stroke-width="1.2"/><circle cx="289.5" cy="102" r="3.4" fill="none" stroke="#2b3036" stroke-width="1.2"/><circle cx="349.5" cy="102" r="3.4" fill="none" stroke="#2b3036" stroke-width="1.2"/><text x="319.5" y="158" font-family="'IBM Plex Mono',ui-monospace,monospace" font-size="11" letter-spacing=".03em" fill="#16191c" font-weight="600" text-anchor="middle">CONTINUOUS (PIANO)</text><rect x="426" y="0" width="213" height="180" fill="#ffffff" stroke="#d3d7dc" stroke-width="1.5"/><rect x="486.5" y="42" width="30" height="60" rx="4" fill="#e8eaec" stroke="#2b3036" stroke-width="1.8"/><path d="M516.5 54 q34 18 60 0 v36 q-26 18 -60 0 z" fill="#eef0f1" stroke="#2b3036" stroke-width="1.8"/><circle cx="562.5" cy="72" r="10" fill="#ffffff" stroke="#1c5a8f" stroke-width="2"/><text x="532.5" y="158" font-family="'IBM Plex Mono',ui-monospace,monospace" font-size="11" letter-spacing=".03em" fill="#16191c" font-weight="600" text-anchor="middle">CONCEALED (EURO)</text><rect x="0" y="180" width="213" height="180" fill="#ffffff" stroke="#d3d7dc" stroke-width="1.5"/><path d="M48.5 236 h44 l40 -8 v44 l-40 -8 h-44 z" fill="#e8eaec" stroke="#2b3036" stroke-width="1.8"/><line x1="48.5" y1="230" x2="48.5" y2="274" stroke="#1c5a8f" stroke-width="3"/><text x="106.5" y="338" font-family="'IBM Plex Mono',ui-monospace,monospace" font-size="11" letter-spacing=".03em" fill="#16191c" font-weight="600" text-anchor="middle">STRAP</text><rect x="213" y="180" width="213" height="180" fill="#ffffff" stroke="#d3d7dc" stroke-width="1.5"/><rect x="267.5" y="218" width="30" height="68" fill="#e8eaec" stroke="#2b3036" stroke-width="1.8"/><path d="M297.5 242 h58 l14 10 l-14 10 h-58 z" fill="#e8eaec" stroke="#2b3036" stroke-width="1.8"/><line x1="297.5" y1="216" x2="297.5" y2="288" stroke="#1c5a8f" stroke-width="3"/><text x="319.5" y="338" font-family="'IBM Plex Mono',ui-monospace,monospace" font-size="11" letter-spacing=".03em" fill="#16191c" font-weight="600" text-anchor="middle">T-HINGE</text><rect x="426" y="180" width="213" height="180" fill="#ffffff" stroke="#d3d7dc" stroke-width="1.5"/><circle cx="528.5" cy="252" r="24" fill="none" stroke="#2b3036" stroke-width="2"/><rect x="526.5" y="246" width="52" height="12" fill="#e8eaec" stroke="#2b3036" stroke-width="1.8"/><line x1="528.5" y1="222" x2="528.5" y2="282" stroke="#1c5a8f" stroke-width="3"/><text x="532.5" y="338" font-family="'IBM Plex Mono',ui-monospace,monospace" font-size="11" letter-spacing=".03em" fill="#16191c" font-weight="600" text-anchor="middle">WELD-ON GATE</text></svg>